<svg xmlns="http://www.w3.org/2000/svg" viewBox="0 0 32 32" fill="none">
  <rect width="32" height="32" rx="8" fill="#0A0A0B"/>
  <path
    d="M16 8c-3.1 0-5.5 1.7-5.5 4.2 0 1.9 1.2 3.3 3.6 4.2l1.6.6c1.5.5 2.2 1.1 2.2 2.1 0 1.2-1.2 2-3.1 2-1.7 0-3.1-.7-4-1.9l-2.4 2.1c1.4 1.8 3.7 2.8 6.4 2.8 3.6 0 6.2-1.9 6.2-4.7 0-2.2-1.4-3.7-4.2-4.7l-1.6-.5c-1.7-.6-2.4-1.1-2.4-2.2 0-1.1 1-1.9 2.7-1.9 1.4 0 2.6.5 3.4 1.5l2.3-1.9C21.1 8.8 18.8 8 16 8z"
    fill="#6366F1"
  />
  <circle cx="16" cy="23" r="1.8" fill="#6366F1"/>
</svg>
