<svg xmlns="http://www.w3.org/2000/svg" viewBox="0 0 280 64" fill="none" aria-label="Stipulate logo">
  <defs>
    <linearGradient id="full-accent" x1="12" y1="12" x2="52" y2="52" gradientUnits="userSpaceOnUse">
      <stop offset="0%" stop-color="#818CF8"/>
      <stop offset="100%" stop-color="#6366F1"/>
    </linearGradient>
    <linearGradient id="full-text" x1="72" y1="0" x2="280" y2="64" gradientUnits="userSpaceOnUse">
      <stop offset="0%" stop-color="#FFFFFF"/>
      <stop offset="100%" stop-color="#C7D2FE"/>
    </linearGradient>
  </defs>
  <rect width="64" height="64" rx="16" fill="#0A0A0B"/>
  <rect x="1" y="1" width="62" height="62" rx="15" stroke="rgba(255,255,255,0.08)" stroke-width="1"/>
  <path
    d="M32 14c-6.2 0-11 3.4-11 8.5 0 3.8 2.4 6.6 7.2 8.4l3.3 1.2c3.1 1.1 4.5 2.2 4.5 4.2 0 2.5-2.4 4.1-6.2 4.1-3.4 0-6.2-1.4-8-3.8l-4.8 4.2c2.8 3.6 7.4 5.6 12.8 5.6 7.2 0 12.4-3.8 12.4-9.5 0-4.4-2.8-7.4-8.4-9.4l-3.2-1.1c-3.4-1.2-4.8-2.3-4.8-4.4 0-2.3 2.1-3.8 5.4-3.8 2.8 0 5.2 1.1 6.8 3l4.6-3.8C42.2 15.6 37.6 14 32 14z"
    fill="url(#full-accent)"
  />
  <circle cx="32" cy="46" r="3.5" fill="url(#full-accent)" opacity="0.9"/>
  <text
    x="80"
    y="42"
    font-family="Inter, Geist, system-ui, sans-serif"
    font-size="28"
    font-weight="600"
    letter-spacing="-0.03em"
    fill="url(#full-text)"
  >stipulate</text>
</svg>
